<?xml version="1.0" standalone="no"?><!DOCTYPE svg PUBLIC "-//W3C//DTD SVG 1.1//EN" "http://www.w3.org/Graphics/SVG/1.1/DTD/svg11.dtd"><svg t="1602305046145" class="icon" viewBox="0 0 1024 1024" version="1.1" xmlns="http://www.w3.org/2000/svg" p-id="1253" xmlns:xlink="http://www.w3.org/1999/xlink" width="200" height="200"><defs><style type="text/css"></style></defs><path d="M883.039 407.865c-12.066-3.889-22.225-2.453-32.293 4.38-30.982 21.043-62.166 41.777-93.351 62.513l-25.44 16.899c-2.218-8.504-4.652-17.244-8.541-25.44-4.289-9.013-10.086-16.864-15.701-24.478-0.109-0.128-0.2-0.256-0.291-0.382 74.906-54.808 85.828-143.416 63.294-204.857-26.876-73.252-96.621-119.628-175.689-115.957-37.453 1.763-71.29 14.557-100.529 38.017-31.583 25.332-52.354 57.352-62.059 95.513-25.805-50.391-67.909-80.92-119.665-85.427-66.347-5.815-124.789 26.331-153.719 83.229-22.752 44.76-28.566 116.049 25.986 175.018-28.658 21.843-43.014 52.408-42.668 90.936 0.345 40.959 0.272 81.92 0.199 122.897l-0.072 54.682c0.018 66.729 44.85 111.577 111.578 111.577l183.958 0.019 183.957-0.019c65.039 0 109.435-42.322 112.142-105.979l25.023 20.844c30.785 25.641 61.587 51.264 92.207 77.104 8.396 7.087 17.063 9.177 27.494 6.433 26.786-6.96 44.813-29.493 44.887-56.079 0.217-95.604 0.217-191.209 0.035-286.813-0.073-24.719-16.427-46.67-40.742-54.63z m-29.693 77.232v238.84l-62.749-52.301c-17.899-14.956-35.8-29.947-53.845-44.723-2.58-2.107-2.689-2.816-2.636-4.906 0.22-9.305 0.2-18.645 0.165-27.949 0-9.34-0.019-18.681 0.199-28.021 0.018-0.472 0.291-1.326 0.546-1.89 37.944-25.641 76.068-51.01 114.193-76.361l4.127-2.689zM604.114 178.658l0.854 11.104c59.096 0.454 107.199 48.773 107.199 107.726 0 28.713-11.231 55.771-31.621 76.178-20.371 20.39-47.394 31.638-76.36 31.638h-0.018c-59.351-0.182-107.544-48.719-107.398-108.196 0.146-59.207 48.303-107.363 107.325-107.363l0.019-11.087zM212.391 516.009c0.036-27.349 14.046-41.215 41.705-41.215l184.431-0.019 184.431 0.019c26.968 0 41.233 14.065 41.251 40.705 0.055 60.497 0.055 121.01 0 181.506-0.018 25.805-14.138 40.034-39.761 40.089l-76.65 0.036-109.706-0.036-55.317 0.019-129.113-0.019c-27.75-0.036-41.252-13.593-41.27-41.506-0.056-59.842-0.056-119.72-0.001-179.579z m83.557-278.637v-11.12l0.109 11.12c22.314 0.038 43.395 8.887 59.332 24.951 15.918 16.027 24.604 37.163 24.478 59.442-0.291 45.813-37.943 83.102-83.975 83.102-46.593-0.019-83.284-36.599-83.501-83.284-0.091-22.516 8.577-43.668 24.441-59.604 15.774-15.866 36.763-24.607 59.116-24.607z m167.166 166.786h-38.58c7.523-11.63 13.321-23.569 17.445-35.854 5.652 12.757 12.684 24.66 21.135 35.854z" p-id="1254" fill="#cdcdcd"></path></svg>