<?xml version="1.0" standalone="no"?><!DOCTYPE svg PUBLIC "-//W3C//DTD SVG 1.1//EN" "http://www.w3.org/Graphics/SVG/1.1/DTD/svg11.dtd"><svg t="1617866068603" class="icon" viewBox="0 0 1024 1024" version="1.1" xmlns="http://www.w3.org/2000/svg" p-id="1429" xmlns:xlink="http://www.w3.org/1999/xlink" width="200" height="200"><defs><style type="text/css"></style></defs><path d="M511.3 960.2C263.8 960.2 63.2 759.6 63.2 512S263.8 63.9 511.3 63.9c13.8 0 27.3 0.8 40.7 2.1v331.4c-12.8-4.5-26.4-7.5-40.7-7.5-67.5 0-122.2 54.7-122.2 122.2s54.7 122.2 122.2 122.2c46.3 0 86-26 106.8-63.9 9.2-7.5 15.4-18.4 15.4-31.2v-458c188.1 53.2 326 225.8 326 430.8 0 247.6-200.6 448.2-448.2 448.2z m176.6-737.8v101.8c50.1 47.1 81.5 113.7 81.5 187.8 0 142.5-115.5 258-258 258s-258-115.5-258-258c0-137.9 108.3-250.2 244.5-257.4v-81.5c-181.3 7.3-326.1 156-326.1 338.9 0 187.5 152 339.5 339.5 339.5s339.5-152 339.5-339.5c0.1-122.7-65.3-229.9-162.9-289.6z" p-id="1430"></path></svg>