<?xml version="1.0" standalone="no"?><!DOCTYPE svg PUBLIC "-//W3C//DTD SVG 1.1//EN" "http://www.w3.org/Graphics/SVG/1.1/DTD/svg11.dtd"><svg t="1576837996910" class="icon" viewBox="0 0 1024 1024" version="1.1" xmlns="http://www.w3.org/2000/svg" p-id="4086" xmlns:xlink="http://www.w3.org/1999/xlink" width="300" height="300"><defs><style type="text/css"></style></defs><path d="M512 943.979502c223.989447-224.729298 335.984171-399.577534 335.984171-524.546757 0-187.452299-150.424988-339.412246-335.984171-339.412247S176.015829 231.980445 176.015829 419.432745c0 124.9682 111.994724 299.81746 335.984171 524.546757z m45.327348 45.177945c-25.009603 25.092491-65.645093 25.092491-90.654696 0-235.249909-236.027621-354.653369-422.443311-354.653369-569.724702C112.019283 196.780759 290.950512 16.023952 512 16.023952s399.980717 180.756807 399.980717 403.408793c0 147.281391-119.40346 333.697081-354.653369 569.724702z m-45.327348-445.158662c70.688969 0 127.994116-57.305147 127.994116-127.994116s-57.305147-127.994116-127.994116-127.994116-127.994116 57.305147-127.994116 127.994116 57.305147 127.994116 127.994116 127.994116z m0 63.996546c-106.033965 0-191.990662-85.956697-191.990662-191.990662s85.956697-191.990662 191.990662-191.990662 191.990662 85.956697 191.990662 191.990662-85.957721 191.990662-191.990662 191.990662z" p-id="4087" fill="#dbdbdb"></path></svg>