<?xml version="1.0" standalone="no"?><!DOCTYPE svg PUBLIC "-//W3C//DTD SVG 1.1//EN" "http://www.w3.org/Graphics/SVG/1.1/DTD/svg11.dtd"><svg t="1576837697762" class="icon" viewBox="0 0 1024 1024" version="1.1" xmlns="http://www.w3.org/2000/svg" p-id="3000" xmlns:xlink="http://www.w3.org/1999/xlink" width="300" height="300"><defs><style type="text/css"></style></defs><path d="M895.981325 64.021106c17.672498 0 31.998785 14.326287 31.998784 31.998785v703.966102c0 17.672498-14.326287 31.998785-31.998784 31.998785s-31.998785-14.326287-31.998785-31.998785V96.019891c0-17.672498 14.326287-31.998785 31.998785-31.998785zM639.994116 416.004669c17.672498 0 31.998785 14.326287 31.998785 31.998785v351.983563c0 17.672498-14.326287 31.998785-31.998785 31.998785s-31.998785-14.326287-31.998785-31.998785V448.00243c0-17.671475 14.326287-31.997762 31.998785-31.997761z m-255.988232-95.995331c17.672498 0 31.998785 14.326287 31.998785 31.998784v447.978895c0 17.672498-14.326287 31.998785-31.998785 31.998785s-31.998785-14.326287-31.998785-31.998785V352.007099c0-17.671475 14.326287-31.997762 31.998785-31.997761zM64.021106 895.981325H959.977871c17.672498 0 31.998785 14.326287 31.998785 31.998784s-14.326287 31.998785-31.998785 31.998785H64.021106c-17.672498 0-31.998785-14.326287-31.998785-31.998785s14.326287-31.998785 31.998785-31.998784z m63.997569-319.984779c17.672498 0 31.998785 14.326287 31.998785 31.998785v191.990662c0 17.672498-14.326287 31.998785-31.998785 31.998785s-31.998785-14.326287-31.998784-31.998785V607.995331c0-17.672498 14.326287-31.998785 31.998784-31.998785z" p-id="3001" fill="#dbdbdb"></path></svg>