<?xml version="1.0" standalone="no"?><!DOCTYPE svg PUBLIC "-//W3C//DTD SVG 1.1//EN" "http://www.w3.org/Graphics/SVG/1.1/DTD/svg11.dtd"><svg t="1617869341937" class="icon" viewBox="0 0 1024 1024" version="1.1" xmlns="http://www.w3.org/2000/svg" p-id="10735" xmlns:xlink="http://www.w3.org/1999/xlink" width="200" height="200"><defs><style type="text/css"></style></defs><path d="M512 512m-512 0a512 512 0 1 0 1024 0 512 512 0 1 0-1024 0Z" fill="#d33a31" p-id="10736"></path><path d="M802.085 528.066c-19.343-24.572-43.631-40.047-73.004-46.567 4.013-11.965 6.018-24.286 6.018-36.968 0-28.154-9.313-52.083-27.94-71.784-18.627-19.63-41.266-29.517-67.845-29.517-19.272 0-36.896 5.66-52.872 16.907-13.971-25.289-33.24-45.707-57.885-61.182-24.575-15.475-51.368-23.212-80.313-23.212-28.943 0-55.665 7.594-80.31 22.71-24.646 15.188-44.06 35.75-58.388 61.756-14.257 26.078-21.422 54.234-21.422 84.466v8.455c-27.94 10.531-50.865 28.871-68.848 54.877-17.982 26.005-26.938 55.522-26.938 88.62 0 3.319 0.1 6.606 0.291 9.864 17.584-3.49 36.155-5.363 55.358-5.363 110.778 0 200.582 62.212 200.582 138.954 0 2.854-0.139 5.687-0.384 8.499H703.29c23.283 0 44.705-5.947 64.335-17.911 19.63-11.966 35.104-28.299 46.422-49.075 11.32-20.704 16.98-43.415 16.98-68.059 0-32.31-9.673-60.824-28.942-85.47zM596.4 574.489L490.656 686.396c-2.65 2.792-6.305 4.226-10.96 4.226-4.657 0-8.312-1.434-10.962-4.226L362.991 574.489c-4.657-4.871-5.66-10.889-3.009-17.909 2.651-7.021 7.665-10.53 14.972-10.53h64.837V427.84c0-4.873 1.503-8.955 4.513-12.107 3.008-3.152 6.805-4.729 11.462-4.729h47.928c4.658 0 8.454 1.576 11.462 4.729 3.01 3.152 4.516 7.163 4.516 12.107v118.21h64.834c7.308 0 12.323 3.51 14.975 10.53s1.648 13.038-3.081 17.909z" fill="#FFFFFF" p-id="10737"></path><path d="M247.988 601.128c-19.203 0-37.774 1.873-55.358 5.363 1.385 23.679 7.797 45.744 19.196 66.148 12.967 23.212 30.448 41.623 52.371 55.38 21.994 13.684 45.922 20.562 71.857 20.562h112.132c0.245-2.813 0.384-5.645 0.384-8.499 0-76.742-89.803-138.954-200.582-138.954z" fill="#FFFFFF" opacity=".4" p-id="10738"></path></svg>