<?xml version="1.0" standalone="no"?><!DOCTYPE svg PUBLIC "-//W3C//DTD SVG 1.1//EN" "http://www.w3.org/Graphics/SVG/1.1/DTD/svg11.dtd"><svg t="1576838013797" class="icon" viewBox="0 0 1024 1024" version="1.1" xmlns="http://www.w3.org/2000/svg" p-id="4267" xmlns:xlink="http://www.w3.org/1999/xlink" width="300" height="300"><defs><style type="text/css"></style></defs><path d="M702.358489 448.546829c-35.044144 0-63.453171-35.510772-63.453171-79.316463s28.409027-79.316463 63.453171-79.316464 63.453171 35.510772 63.453171 79.316464-28.409027 79.316463-63.453171 79.316463z m-380.718001 0c-35.044144 0-63.453171-35.510772-63.453171-79.316463s28.409027-79.316463 63.453171-79.316464 63.453171 35.510772 63.45317 79.316464-28.409027 79.316463-63.45317 79.316463z m190.359512 539.350928c262.831081 0 475.897757-213.066677 475.897757-475.897757S774.831081 36.102243 512 36.102243 36.102243 249.168919 36.102243 512 249.168919 987.897757 512 987.897757z m0 31.726586c-280.353153 0-507.624343-227.27119-507.624343-507.624343S231.646847 4.375657 512 4.375657s507.624343 227.27119 507.624343 507.624343-227.27119 507.624343-507.624343 507.624343zM226.460732 575.453171H797.538245c0 157.698648-127.84062 285.538245-285.538245 285.538245S226.460732 733.151819 226.460732 575.453171z" p-id="4268" fill="#dbdbdb"></path></svg>