<?xml version="1.0" standalone="no"?><!DOCTYPE svg PUBLIC "-//W3C//DTD SVG 1.1//EN" "http://www.w3.org/Graphics/SVG/1.1/DTD/svg11.dtd"><svg t="1618134709531" class="icon" viewBox="0 0 1024 1024" version="1.1" xmlns="http://www.w3.org/2000/svg" p-id="8765" xmlns:xlink="http://www.w3.org/1999/xlink" width="200" height="200"><defs><style type="text/css"></style></defs><path d="M288 480c54.4 0 96-41.6 96-96s-41.6-96-96-96-96 41.6-96 96 41.6 96 96 96z m0-128c19.2 0 32 12.8 32 32s-12.8 32-32 32-32-12.8-32-32 12.8-32 32-32z" p-id="8766"></path><path d="M864 160h-704c-54.4 0-96 41.6-96 96v512c0 54.4 41.6 96 96 96h704c54.4 0 96-41.6 96-96v-512c0-54.4-41.6-96-96-96z m-736 608v-512c0-19.2 12.8-32 32-32h704c19.2 0 32 12.8 32 32v364.8l-169.6-169.6c-38.4-38.4-99.2-38.4-134.4 0l-348.8 348.8h-83.2c-19.2 0-32-12.8-32-32z m736 32h-531.2l304-304c12.8-12.8 32-12.8 44.8 0l214.4 214.4v57.6c0 19.2-12.8 32-32 32z" p-id="8767"></path></svg>