<?xml version="1.0" standalone="no"?><!DOCTYPE svg PUBLIC "-//W3C//DTD SVG 1.1//EN" "http://www.w3.org/Graphics/SVG/1.1/DTD/svg11.dtd"><svg t="1618134656619" class="icon" viewBox="0 0 1260 1024" version="1.1" xmlns="http://www.w3.org/2000/svg" p-id="7193" xmlns:xlink="http://www.w3.org/1999/xlink" width="246.09375" height="200"><defs><style type="text/css"></style></defs><path d="M338.707692 795.569231c-23.630769-47.261538 0-118.153846 63.015385-149.661539 31.507692-15.753846 55.138462-15.753846 86.646154-15.753846V307.2c0-15.753846 15.753846-31.507692 31.507692-39.384615l322.953846-78.769231c15.753846 0 23.630769 0 31.507693 7.876923 7.876923 7.876923 15.753846 15.753846 15.753846 31.507692v31.507693L677.415385 315.076923l-110.276923 23.630769v378.092308c0 39.384615-31.507692 78.769231-70.892308 110.276923-63.015385 31.507692-133.907692 15.753846-157.538462-31.507692z" p-id="7194"></path><path d="M1142.153846 1024h-1024C55.138462 1024 0 968.861538 0 905.846154v-787.692308C0 55.138462 55.138462 0 118.153846 0h1024c63.015385 0 118.153846 55.138462 118.153846 118.153846v787.692308c0 63.015385-55.138462 118.153846-118.153846 118.153846zM118.153846 78.769231c-23.630769 0-39.384615 15.753846-39.384615 39.384615v787.692308c0 23.630769 15.753846 39.384615 39.384615 39.384615h1024c23.630769 0 39.384615-15.753846 39.384616-39.384615v-787.692308c0-23.630769-15.753846-39.384615-39.384616-39.384615h-1024z" p-id="7195"></path><path d="M811.323077 362.338462l78.769231-23.63077V630.153846c0 39.384615-31.507692 86.646154-70.892308 110.276923-63.015385 31.507692-133.907692 23.630769-157.538462-23.630769-23.630769-47.261538 0-118.153846 63.015385-149.661538 31.507692-15.753846 63.015385-23.630769 86.646154-15.753847V362.338462z" p-id="7196"></path></svg>