<?xml version="1.0" standalone="no"?><!DOCTYPE svg PUBLIC "-//W3C//DTD SVG 1.1//EN" "http://www.w3.org/Graphics/SVG/1.1/DTD/svg11.dtd"><svg t="1576838051934" class="icon" viewBox="0 0 1024 1024" version="1.1" xmlns="http://www.w3.org/2000/svg" p-id="4448" xmlns:xlink="http://www.w3.org/1999/xlink" width="300" height="300"><defs><style type="text/css"></style></defs><path d="M320.009338 473.072409c-26.508747 0-47.998177-21.48943-47.998178-47.998177s21.48943-47.998177 47.998178-47.998178 47.998177 21.48943 47.998177 47.998178-21.490453 47.998177-47.998177 47.998177z m191.990662 0c-26.508747 0-47.998177-21.48943-47.998177-47.998177s21.48943-47.998177 47.998177-47.998178 47.998177 21.48943 47.998177 47.998178-21.48943 47.998177-47.998177 47.998177z m191.990662 0c-26.508747 0-47.997154-21.48943-47.997154-47.998177s21.48943-47.998177 47.997154-47.998178c26.508747 0 47.998177 21.48943 47.998178 47.998178s-21.48943 47.998177-47.998178 47.998177zM304.009945 870.196055l184.698583-143.654794a63.99757 63.99757 0 0 1 39.289841-13.481036h351.983563c17.672498 0 31.998785-14.326287 31.998785-31.998785V169.087023c0-17.672498-14.326287-31.998785-31.998785-31.998785H144.017044c-17.672498 0-31.998785 14.326287-31.998784 31.998785v511.975441c0 17.672498 14.326287 31.998785 31.998784 31.998784h95.995332c35.344996 0 63.996546 28.652574 63.996546 63.996547v93.13826z m223.989447-93.13826L317.478701 940.795996c-20.924565 16.274662-51.080376 12.504802-67.355037-8.419763a47.994084 47.994084 0 0 1-10.110265-29.468149V777.057795h-95.995331c-53.016471 0-95.995331-42.97886-95.995331-95.995331V169.087023c0-53.016471 42.97886-95.995331 95.995331-95.995331h735.964888c53.016471 0 95.995331 42.97886 95.995331 95.995331v511.975441c0 53.016471-42.97886 95.995331-95.995331 95.995331H527.999392z" p-id="4449" fill="#dbdbdb"></path></svg>