<?xml version="1.0" standalone="no"?><!DOCTYPE svg PUBLIC "-//W3C//DTD SVG 1.1//EN" "http://www.w3.org/Graphics/SVG/1.1/DTD/svg11.dtd"><svg t="1617156893087" class="icon" viewBox="0 0 1024 1024" version="1.1" xmlns="http://www.w3.org/2000/svg" p-id="2711" xmlns:xlink="http://www.w3.org/1999/xlink" width="200" height="200"><defs><style type="text/css"></style></defs><path d="M349.866667 149.333333h-14.933334c-21.333333 0-36.266667 14.933333-36.266666 34.133334v654.933333c0 19.2 14.933333 34.133333 34.133333 34.133333h14.933333c19.2 0 34.133333-14.933333 34.133334-34.133333V183.466667c2.133333-19.2-12.8-34.133333-32-34.133334z m341.333333 0h-14.933333c-21.333333 0-36.266667 14.933333-36.266667 34.133334v654.933333c0 19.2 14.933333 34.133333 34.133333 34.133333h14.933334c19.2 0 34.133333-14.933333 34.133333-34.133333V183.466667c2.133333-19.2-12.8-34.133333-32-34.133334z" p-id="2712"></path></svg>