<?xml version="1.0" standalone="no"?><!DOCTYPE svg PUBLIC "-//W3C//DTD SVG 1.1//EN" "http://www.w3.org/Graphics/SVG/1.1/DTD/svg11.dtd"><svg t="1576837905033" class="icon" viewBox="0 0 1024 1024" version="1.1" xmlns="http://www.w3.org/2000/svg" p-id="3724" xmlns:xlink="http://www.w3.org/1999/xlink" width="300" height="300"><defs><style type="text/css"></style></defs><path d="M628.577089 624.385627l-163.614382 102.258988c-14.986319 9.366322-34.727942 4.810562-44.094264-10.175757a31.998785 31.998785 0 0 1-4.863774-16.959254v-204.517976c0-17.672498 14.326287-31.998785 31.998785-31.998785a31.998785 31.998785 0 0 1 16.959253 4.863774l163.614382 102.258989c14.986319 9.366322 19.542078 29.107945 10.175757 44.094264a32.019251 32.019251 0 0 1-10.175757 10.175757zM160.016437 261.266445c-17.672498 0-31.998785 14.326287-31.998785 31.998785v575.971987c0 17.672498 14.326287 31.998785 31.998785 31.998785h703.966103c17.672498 0 31.998785-14.326287 31.998785-31.998785V293.26523c0-17.672498-14.326287-31.998785-31.998785-31.998785H160.016437z m605.226264-63.996546h98.740862c53.016471 0 95.995331 42.97886 95.995331 95.995331v575.971987c0 53.016471-42.97886 95.995331-95.995331 95.995331H160.016437c-53.016471 0-95.995331-42.97886-95.995331-95.995331V293.26523c0-53.016471 42.97886-95.995331 95.995331-95.995331h98.740862l-83.878363-83.878362c-12.496615-12.495592-12.496615-32.756031 0-45.252647 12.496615-12.496615 32.756031-12.496615 45.252647 0l129.131009 129.131009h325.474816l129.131009-129.131009c12.495592-12.496615 32.756031-12.496615 45.252647 0 12.496615 12.495592 12.496615 32.756031 0 45.252647l-83.878363 83.878362z" p-id="3725" fill="#dbdbdb"></path></svg>